<?xml version="1.0" standalone="no"?>
<svg xmlns="http://www.w3.org/2000/svg" viewBox="0 0 1440 320">
    <path 
        fill="#FFEC8E" 
        fill-opacity="1" 
        d="M0,96L12.6,112C25.3,128,51,160,76,165.3C101.1,171,126,149,152,170.7C176.8,192,202,256,227,288C252.6,320,278,320,303,288C328.4,256,354,192,379,138.7C404.2,85,429,43,455,32C480,21,505,43,531,85.3C555.8,128,581,192,606,192C631.6,192,657,128,682,106.7C707.4,85,733,107,758,96C783.2,85,808,43,834,32C858.9,21,884,43,909,64C934.7,85,960,107,985,112C1010.5,117,1036,107,1061,96C1086.3,85,1112,75,1137,101.3C1162.1,128,1187,192,1213,208C1237.9,224,1263,192,1288,197.3C1313.7,203,1339,245,1364,224C1389.5,203,1415,117,1427,74.7L1440,32L1440,320L1427.4,320C1414.7,320,1389,320,1364,320C1338.9,320,1314,320,1288,320C1263.2,320,1238,320,1213,320C1187.4,320,1162,320,1137,320C1111.6,320,1086,320,1061,320C1035.8,320,1011,320,985,320C960,320,935,320,909,320C884.2,320,859,320,834,320C808.4,320,783,320,758,320C732.6,320,707,320,682,320C656.8,320,632,320,606,320C581.1,320,556,320,531,320C505.3,320,480,320,455,320C429.5,320,404,320,379,320C353.7,320,328,320,303,320C277.9,320,253,320,227,320C202.1,320,177,320,152,320C126.3,320,101,320,76,320C50.5,320,25,320,13,320L0,320Z">
    </path>
</svg>